<?xml version="1.0" encoding="UTF-8"?>
<svg xmlns="http://www.w3.org/2000/svg" version="1.1" viewBox="0 0 1122 1122">
  <!-- Generator: Adobe Illustrator 29.4.0, SVG Export Plug-In . SVG Version: 2.1.0 Build 152)  -->
  <defs>
    <style>
      .st0 {
        fill: #d8d9da;
      }

      .st1 {
        fill: #b1b2b3;
      }

      .st2 {
        fill: #fff;
      }

      .st3 {
        fill: #516784;
      }

      .st4 {
        fill: #3e5770;
      }

      .st5 {
        fill: #65829e;
      }
    </style>
  </defs>
  <g id="BG">
    <rect class="st2" width="1122" height="1122"/>
  </g>
  <g id="Object">
    <g>
      <g>
        <path class="st3" d="M860.84,551.37c-.33-11.53-1.43-22.93-3.11-34.08l-59.38-9.84-20.13-56.18,39.57-45.36c-12-19.97-26.28-38.35-42.42-54.88l-53.84,27.03-49.36-33.56,5.34-60.04c-20.47-8.63-42.12-15.12-64.59-19.02l-27.97,53.43-59.7,1.4-30.66-51.95c-22.95,5.23-44.88,13.01-65.46,23.13l8.8,59.63-47.45,36.29-55.29-23.87c-15.18,17.37-28.41,36.51-39.29,57.15l42.07,43.01-16.95,57.21-58.76,13.24c-1.06,11.84-1.51,23.94-1.13,36.23.42,11.22,1.42,22.22,2.94,33.07l59.41,10.01,19.94,56.25-39.83,45.25c12.04,19.98,26.26,38.56,42.4,55.14l53.95-26.86,49.26,33.71-5.58,60.06c21.13,8.94,43.41,15.67,66.57,19.63l27.81-53.56,59.69-1.65,30.76,51.88c22.93-5.33,44.83-13.23,65.4-23.39l-8.97-59.6,47.28-36.5,55.34,23.72c15.18-17.49,28.38-36.66,39.17-57.28l-42.32-42.84,16.74-57.38,58.8-13.33c.95-11.63,1.34-23.41.93-35.27ZM649.7,661.85c-55.7,48.93-140.65,43.72-189.81-12.27-48.88-55.93-43.46-140.77,12.42-189.66,55.64-49.17,140.64-43.71,189.62,12.07,49.24,55.89,43.59,140.91-12.23,189.87Z"/>
        <path class="st0" d="M708.83,431.01c-71.7-81.64-196.2-89.77-277.86-18.08-81.57,71.77-89.66,196.06-17.78,277.83,71.68,81.61,196.1,89.64,277.68,17.96,81.67-71.69,89.67-196.11,17.96-277.7ZM678.14,694.22c-73.59,64.66-185.81,57.42-250.47-16.2-64.84-73.75-57.55-185.86,16.03-250.6,73.66-64.67,185.96-57.33,250.63,16.31,64.68,73.59,57.46,185.82-16.2,250.49Z"/>
        <path class="st4" d="M447.24,775.55l1.97,1.35-4.57,59.54-1.01.51c21.13,8.94,43.41,15.67,66.57,19.63l-.54-.97,28.36-52.58,59.69-1.65,31.35,50.85-.59,1.03c22.93-5.33,44.83-13.23,65.4-23.39l-.98-.42-7.98-59.17,47.28-36.5,55.29,22.7.06,1.01c15.18-17.49,28.38-36.66,39.17-57.28l-1.04.28-41.28-43.12,16.74-57.38,58.04-14.07.76.74c.95-11.63,1.34-23.41.93-35.27-.33-11.53-1.43-22.93-3.11-34.08l-.63.85-16.66-3.03c-111.54,160.84-268.63,230.54-393.2,260.44Z"/>
        <path class="st1" d="M690.88,708.72c28.02-24.59,47.36-55.4,57.79-88.54-10.92,9.96-22.02,19.36-33.25,28.24-9.53,16.81-21.94,32.35-37.27,45.81-33.49,29.43-74.99,43.91-116.36,44.07-13.46,5.63-26.83,10.74-40.03,15.36,58.22,11.8,121.09-2.74,169.12-44.94Z"/>
      </g>
      <path class="st5" d="M440.01,338.05l-5.71-48.31s28.57-15.06,50.39-18.7c0,0-35.32,12.99-44.67,67.01Z"/>
    </g>
  </g>
</svg>